<?xml version="1.0" standalone="no"?>
<!DOCTYPE svg PUBLIC "-//W3C//DTD SVG 20010904//EN"
 "http://www.w3.org/TR/2001/REC-SVG-20010904/DTD/svg10.dtd">
<svg version="1.0" xmlns="http://www.w3.org/2000/svg"
 width="176.000000pt" height="51.000000pt" viewBox="0 0 176.000000 51.000000"
 preserveAspectRatio="xMidYMid meet">

<g transform="translate(0.000000,51.000000) scale(0.100000,-0.100000)"
fill="#000000" stroke="none">
<path d="M123 390 c-31 -13 -41 -37 -57 -142 -15 -99 -10 -122 24 -133 15 -5
32 3 60 29 37 33 45 36 100 36 55 0 63 -3 100 -36 41 -38 71 -40 89 -6 8 16
-8 162 -24 211 -12 38 -55 51 -167 50 -57 0 -113 -4 -125 -9z m67 -70 c0 -13
7 -20 20 -20 11 0 20 -7 20 -15 0 -8 -9 -15 -20 -15 -13 0 -20 -7 -20 -20 0
-11 -7 -20 -15 -20 -8 0 -15 9 -15 20 0 13 -7 20 -20 20 -11 0 -20 7 -20 15 0
8 9 15 20 15 13 0 20 7 20 20 0 11 7 20 15 20 8 0 15 -9 15 -20z m146 9 c8
-14 -21 -43 -35 -35 -19 12 -13 46 8 46 11 0 23 -5 27 -11z m42 -72 c4 -20
-25 -34 -40 -19 -15 15 -1 44 19 40 10 -2 19 -11 21 -21z"/>
<path d="M1640 261 c0 -74 3 -91 15 -91 8 0 15 9 15 19 0 31 18 34 36 6 9 -14
23 -25 31 -25 11 0 10 8 -7 35 -21 33 -21 37 -6 54 20 22 20 31 2 31 -7 0 -22
-12 -32 -27 l-19 -28 -5 54 c-3 31 -10 56 -17 59 -10 3 -13 -19 -13 -87z"/>
<path d="M541 259 c-31 -81 -33 -115 -4 -71 21 30 79 31 88 2 3 -11 13 -20 20
-20 11 0 8 19 -15 81 -17 44 -30 82 -30 85 0 2 -6 4 -14 4 -9 0 -27 -33 -45
-81z m63 -6 c6 -20 4 -23 -18 -23 -29 0 -33 17 -15 52 12 23 19 16 33 -29z"/>
<path d="M690 255 c0 -84 0 -85 25 -85 14 0 25 5 25 10 0 6 -7 10 -15 10 -12
0 -15 15 -15 75 0 43 -4 75 -10 75 -6 0 -10 -35 -10 -85z"/>
<path d="M1175 315 c-31 -30 -33 -82 -4 -119 18 -23 27 -26 80 -25 l59 2 0 38
c0 37 -2 39 -30 39 -16 0 -30 -4 -30 -10 0 -5 7 -10 15 -10 22 0 18 -18 -6
-31 -45 -24 -91 27 -74 81 10 31 45 41 74 23 31 -20 55 0 25 22 -30 23 -81 19
-109 -10z"/>
<path d="M1380 293 c-50 -19 -66 -75 -30 -108 28 -26 100 -22 100 6 0 5 -16 7
-39 3 -30 -5 -39 -3 -44 10 -5 13 2 16 43 16 41 0 50 3 50 18 0 9 -4 22 -8 28
-7 10 -47 35 -54 33 -2 0 -10 -3 -18 -6z m50 -43 c0 -6 -16 -10 -35 -10 -38 0
-46 13 -18 29 19 10 53 -2 53 -19z"/>
<path d="M1530 293 c-50 -19 -66 -75 -30 -108 28 -26 100 -22 100 6 0 5 -16 7
-39 3 -30 -5 -39 -3 -44 10 -5 13 2 16 43 16 41 0 50 3 50 18 0 9 -4 22 -8 28
-7 10 -47 35 -54 33 -2 0 -10 -3 -18 -6z m50 -43 c0 -6 -16 -10 -35 -10 -38 0
-46 13 -18 29 19 10 53 -2 53 -19z"/>
<path d="M760 249 c0 -22 5 -49 10 -60 12 -22 49 -25 69 -6 11 10 14 10 18 0
3 -7 12 -13 20 -13 10 0 13 6 9 16 -3 9 -6 36 -6 60 0 32 -4 44 -14 44 -11 0
-16 -14 -18 -47 -3 -44 -5 -48 -28 -48 -23 0 -25 4 -28 48 -2 33 -7 47 -18 47
-10 0 -14 -12 -14 -41z"/>
<path d="M920 230 c0 -33 4 -60 10 -60 6 0 10 15 10 34 0 33 16 59 42 69 7 2
10 8 6 12 -4 4 -15 2 -24 -6 -13 -11 -18 -11 -21 -1 -11 31 -23 6 -23 -48z"/>
<path d="M1020 281 c0 -5 14 -8 32 -7 23 1 33 -4 36 -16 3 -14 -3 -18 -25 -18
-39 0 -55 -13 -51 -41 2 -18 10 -25 32 -27 16 -2 33 1 39 7 7 7 1 10 -19 8
-23 -2 -29 2 -29 18 0 14 8 21 26 23 22 3 27 -2 32 -27 4 -17 13 -31 21 -31
10 0 12 11 8 48 -2 26 -9 53 -15 60 -11 14 -87 17 -87 3z"/>
</g>
</svg>
